<svg width="872" height="872" viewBox="0 0 872 872" fill="none" xmlns="http://www.w3.org/2000/svg">
<path d="M410.1 104.097C431.197 72.867 477.948 75.3171 495.665 108.581L564.173 237.211C572.32 252.507 586.321 263.846 602.977 268.634L743.04 308.902C779.26 319.315 791.377 364.534 765.216 391.663L664.051 496.568C652.022 509.042 645.565 525.863 646.158 543.182L651.142 688.834C652.431 726.5 613.17 751.997 579.285 735.5L448.253 671.704C432.671 664.118 414.679 663.175 398.39 669.091L261.407 718.841C225.983 731.705 189.602 702.244 194.821 664.92L215.003 520.587C217.403 503.423 212.74 486.021 202.08 472.357L112.436 357.452C89.2538 327.738 106.03 284.032 143.141 277.462L286.646 252.056C303.711 249.035 318.821 239.222 328.522 224.861L410.1 104.097Z" fill="url(#paint0_linear_741_148)" stroke="black" stroke-width="14"/>
<path d="M355.811 366.321C355.811 391.352 339.055 413.763 324.271 413.763C309.487 413.763 295.646 396.918 295.646 371.887C295.646 346.856 314.257 320.999 329.042 320.999C343.826 320.999 355.811 341.291 355.811 366.321Z" fill="black"/>
<ellipse cx="334.867" cy="348.299" rx="10.8666" ry="11.3967" fill="white"/>
<path d="M578.407 375.333C578.407 400.363 560.061 421.98 545.277 421.98C530.493 421.98 517.713 405.664 517.713 380.634C517.713 355.603 534.94 329.746 549.724 329.746C564.508 329.746 578.407 350.302 578.407 375.333Z" fill="black"/>
<ellipse cx="556.406" cy="356.25" rx="11.3967" ry="11.9268" fill="white"/>
<ellipse cx="265.166" cy="437.882" rx="38.1658" ry="39.491" fill="white"/>
<ellipse cx="604.913" cy="449.809" rx="40.2861" ry="38.1658" fill="white"/>
<ellipse cx="604.914" cy="449.809" rx="31.8048" ry="30.2146" fill="white"/>
<ellipse cx="265.16" cy="438.147" rx="31.8048" ry="30.2146" fill="white"/>
<path d="M492.24 418.174C496.878 419.947 499.256 425.176 496.925 429.561C491.568 439.643 483.851 448.326 474.386 454.831C462.447 463.037 448.296 467.388 433.826 467.3C419.357 467.213 405.259 462.692 393.419 454.343C384.033 447.723 376.421 438.948 371.184 428.802C368.906 424.389 371.347 419.19 376.006 417.472C380.682 415.749 385.805 418.203 388.281 422.527C392.125 429.239 397.4 435.062 403.77 439.555C412.609 445.787 423.133 449.162 433.935 449.227C444.736 449.293 455.3 446.045 464.212 439.919C470.636 435.504 475.98 429.746 479.904 423.081C482.432 418.787 487.585 416.394 492.24 418.174Z" fill="black"/>
<defs>
<linearGradient id="paint0_linear_741_148" x1="82.5" y1="250.5" x2="670.5" y2="750.5" gradientUnits="userSpaceOnUse">
<stop offset="0.201923" stop-color="#F2FF00"/>
<stop offset="0.596154" stop-color="#D49BFF"/>
<stop offset="1" stop-color="#FF4447"/>
</linearGradient>
</defs>
</svg>
